<svg width="76" height="76" viewBox="0 0 76 76" fill="none" xmlns="http://www.w3.org/2000/svg">
<g id="Iconsax/Outline/hearttick">
<path id="Vector" d="M54.4667 72.0353C51.4344 72.0317 48.4548 71.2421 45.8186 69.7436C43.1823 68.2451 40.9795 66.0889 39.4251 63.4853C37.7784 60.8253 36.8917 57.6587 36.8917 54.4603C36.8917 44.7703 44.7767 36.8853 54.4667 36.8853C64.1567 36.8853 72.0417 44.7703 72.0417 54.4603C72.0417 57.6903 71.1551 60.8253 69.4767 63.5487C66.3734 68.7737 60.6101 72.0353 54.4667 72.0353ZM54.4667 41.6353C47.4051 41.6353 41.6417 47.3987 41.6417 54.4603C41.6417 56.8037 42.2751 59.0837 43.4784 61.047C44.6022 62.959 46.2091 64.5418 48.1377 65.6367C50.0663 66.7316 52.249 67.3002 54.4667 67.2853C59.0267 67.2853 63.1117 64.9737 65.4234 61.0787C66.6584 59.0837 67.2917 56.8037 67.2917 54.4603C67.2917 47.3987 61.5284 41.6353 54.4667 41.6353Z" fill="#ACBD33"/>
<path id="Vector_2" d="M52.2816 60.5783C51.68 60.5783 51.0783 60.3567 50.6033 59.8817L46.8666 56.145C46.4249 55.6981 46.1772 55.095 46.1772 54.4667C46.1772 53.8383 46.4249 53.2353 46.8666 52.7883C47.785 51.87 49.305 51.87 50.2233 52.7883L52.345 54.91L58.7733 48.9567C59.755 48.07 61.2433 48.1333 62.13 49.0833C63.0166 50.0333 62.9533 51.5533 62.0033 52.44L53.8966 59.9133C53.4533 60.3883 52.8516 60.5783 52.2816 60.5783Z" fill="#ACBD33"/>
<path id="Vector_3" d="M38 68.5647C37.0184 68.5647 36.0367 68.438 35.245 68.153C27.1384 65.398 3.95837 51.9713 3.95837 27.5247C3.95837 16.4413 12.92 7.448 23.94 7.448C29.1967 7.448 34.295 9.56966 38 13.2747C41.7342 9.55316 46.7881 7.45875 52.06 7.448C63.08 7.448 72.0417 16.4413 72.0417 27.5247C72.0417 33.6997 70.5534 39.6213 67.6084 45.163C67.4336 45.4961 67.1812 45.7822 66.8726 45.9971C66.5639 46.2121 66.208 46.3496 65.835 46.398C65.4588 46.4482 65.076 46.4084 64.7181 46.2818C64.3603 46.1552 64.0376 45.9454 63.7767 45.6697C62.5851 44.3926 61.1439 43.3739 59.5424 42.6767C57.941 41.9794 56.2134 41.6185 54.4667 41.6163C47.405 41.6163 41.6417 47.3797 41.6417 54.4413C41.6417 57.5763 42.8134 60.6163 44.935 62.9913C45.4417 63.5613 45.6317 64.3213 45.4734 65.0497C45.315 65.778 44.8084 66.4113 44.1434 66.728C42.8767 67.298 41.7367 67.773 40.6917 68.1213C39.9317 68.438 38.9817 68.5647 38 68.5647ZM23.94 12.198C15.5484 12.198 8.70837 19.0697 8.70837 27.5247C8.70837 49.1847 29.5134 61.1547 36.7967 63.6563C37.3984 63.878 38.6017 63.8463 39.1717 63.6563L39.4567 63.5613C37.7784 60.838 36.8917 57.703 36.8917 54.473C36.8917 44.783 44.7767 36.898 54.4667 36.898C58.14 36.898 61.75 38.0697 64.7267 40.223C66.4367 36.1697 67.2917 31.9263 67.2917 27.5247C67.2917 19.0697 60.4517 12.198 52.06 12.198C47.31 12.198 42.75 14.478 39.9 18.3097C39.0134 19.513 36.9867 19.513 36.1 18.3097C34.6855 16.4182 32.8506 14.8815 30.7403 13.8209C28.6299 12.7602 26.3019 12.2046 23.94 12.198Z" fill="#ACBD33"/>
</g>
</svg>
