<svg width="70" height="69" viewBox="0 0 70 69" fill="none" xmlns="http://www.w3.org/2000/svg">
<g id="Group">
<g id="Group_2">
<path id="Vector" d="M63 13.793H49V6.8965C49 3.10343 45.85 0 42 0H28C24.15 0 21 3.10343 21 6.8965V13.793H7C3.15 13.793 0 16.8964 0 20.6895V62.0685C0 65.8616 3.15 68.965 7 68.965H63C66.85 68.965 70 65.8616 70 62.0685V20.6895C70 16.8964 66.85 13.793 63 13.793ZM28 6.8965H42V13.793H28V6.8965ZM63 62.0685H7V20.6895H63V62.0685Z" fill="#ACBD33"/>
<path id="Vector_2" d="M38.5 27.5859H31.5V37.9307H21V44.8272H31.5V55.1719H38.5V44.8272H49V37.9307H38.5V27.5859Z" fill="#ACBD33"/>
</g>
</g>
</svg>
