<svg width="86" height="89" viewBox="0 0 86 89" fill="none" xmlns="http://www.w3.org/2000/svg">
<g id="&#240;&#159;&#166;&#134; icon &#34;medal star&#34;">
<g id="Group">
<path id="Vector" d="M70.3775 32.0069C70.3775 38.0155 68.6753 43.5268 65.746 48.1265C61.4707 54.7566 54.7015 59.4392 46.824 60.6409C45.4781 60.8895 44.0925 61.0138 42.6675 61.0138C41.2424 61.0138 39.8569 60.8895 38.511 60.6409C30.6334 59.4392 23.8642 54.7566 19.5889 48.1265C16.6596 43.5268 14.9574 38.0155 14.9574 32.0069C14.9574 15.9702 27.3478 3 42.6675 3C57.9872 3 70.3775 15.9702 70.3775 32.0069Z" stroke="#ACBD33" stroke-width="6" stroke-linecap="round" stroke-linejoin="round"/>
<path id="Vector_2" d="M79.2843 71.2487L72.7527 72.8648C71.288 73.2378 70.14 74.3981 69.8233 75.9313L68.4378 82.0227C67.6857 85.3378 63.6479 86.3323 61.5499 83.7217L42.6675 61.0134L23.7849 83.7631C21.6868 86.3738 17.6491 85.3792 16.8969 82.0642L15.5114 75.9727C15.1552 74.4395 14.0072 73.2378 12.5821 72.9063L6.05043 71.2902C3.04191 70.5443 1.97309 66.6076 4.15031 64.3285L19.5888 48.1675C23.864 54.7977 30.6332 59.4802 38.511 60.6819C39.8569 60.9306 41.2424 61.0549 42.6675 61.0549C44.0926 61.0549 45.4781 60.9306 46.824 60.6819C54.7015 59.4802 61.4707 54.7977 65.746 48.1675L81.1844 64.3285C83.3617 66.5662 82.2929 70.5028 79.2843 71.2487Z" stroke="#ACBD33" stroke-width="6" stroke-linecap="round" stroke-linejoin="round"/>
<path id="Vector_3" d="M44.9634 19.4925L47.299 24.3822C47.6156 25.0452 48.4469 25.7083 49.1991 25.8326L53.4348 26.5784C56.1266 27.0343 56.76 29.1062 54.8203 31.1367L51.5346 34.576C50.9804 35.1561 50.6637 36.2751 50.8617 37.1038L51.8117 41.372C52.5639 44.7285 50.8617 46.0545 48.0115 44.2727L44.0529 41.8278C43.3404 41.372 42.1528 41.372 41.4403 41.8278L37.4817 44.2727C34.6314 46.0131 32.9292 44.7285 33.6813 41.372L34.6314 37.1038C34.7898 36.3165 34.5126 35.1561 33.9584 34.576L30.6728 31.1367C28.7331 29.1062 29.3665 27.0757 32.0583 26.5784L36.2941 25.8326C37.0066 25.7083 37.8379 25.0452 38.1546 24.3822L40.4902 19.4925C41.6382 16.8404 43.6966 16.8404 44.9634 19.4925Z" stroke="#ACBD33" stroke-width="6" stroke-linecap="round" stroke-linejoin="round"/>
</g>
</g>
</svg>
