<svg width="12" height="22" viewBox="0 0 12 22" fill="none" xmlns="http://www.w3.org/2000/svg">
<path id="Vector" d="M0.99373 19.0422C0.445775 19.5887 0.447026 20.4767 0.996519 21.0217C1.54204 21.5628 2.42223 21.5613 2.96595 21.0184L8.7453 15.2481C10.7506 13.2459 11.7533 12.2448 11.753 11.0003C11.7527 9.75586 10.7495 8.75526 8.74315 6.75406L2.95505 0.98081C2.41157 0.438717 1.53188 0.438717 0.988392 0.98081C0.442929 1.52487 0.442929 2.40846 0.988392 2.95253L4.79755 6.75192C6.80482 8.75404 7.80846 9.7551 7.80846 11C7.80846 12.2449 6.80482 13.246 4.79755 15.2481L0.99373 19.0422Z" fill="#869633"/>
</svg>
