<svg width="75" height="75" viewBox="0 0 75 75" fill="none" xmlns="http://www.w3.org/2000/svg">
<path d="M25.7812 53.9062C25.1596 53.9062 24.5635 53.6593 24.124 53.2198C23.6844 52.7802 23.4375 52.1841 23.4375 51.5625V23.4375C23.4377 23.0381 23.54 22.6454 23.7346 22.2967C23.9291 21.948 24.2096 21.6547 24.5494 21.4448C24.8891 21.2349 25.2768 21.1153 25.6758 21.0973C26.0747 21.0794 26.4717 21.1636 26.8289 21.3422L54.9539 35.4047C55.3427 35.5995 55.6696 35.8987 55.898 36.2687C56.1265 36.6388 56.2475 37.0651 56.2475 37.5C56.2475 37.9349 56.1265 38.3612 55.898 38.7312C55.6696 39.1012 55.3427 39.4004 54.9539 39.5953L26.8289 53.6578C26.5037 53.8207 26.145 53.9057 25.7812 53.9062ZM28.125 27.2297V47.7703L48.6656 37.5L28.125 27.2297Z" fill="#ACBD33"/>
<path d="M37.5 9.375C43.0626 9.375 48.5003 11.0245 53.1254 14.1149C57.7506 17.2053 61.3554 21.5979 63.4841 26.737C65.6128 31.8762 66.1698 37.5312 65.0846 42.9869C63.9994 48.4426 61.3207 53.454 57.3874 57.3874C53.454 61.3207 48.4426 63.9994 42.9869 65.0846C37.5312 66.1698 31.8762 65.6128 26.737 63.4841C21.5979 61.3554 17.2053 57.7505 14.1149 53.1254C11.0245 48.5003 9.37502 43.0626 9.37502 37.5C9.37502 30.0408 12.3382 22.8871 17.6126 17.6126C22.8871 12.3382 30.0408 9.375 37.5 9.375ZM37.5 4.6875C31.0103 4.6875 24.6664 6.61192 19.2704 10.2174C13.8744 13.8229 9.66872 18.9475 7.18522 24.9432C4.70172 30.9389 4.05192 37.5364 5.318 43.9014C6.58408 50.2664 9.70916 56.113 14.2981 60.7019C18.887 65.2909 24.7336 68.4159 31.0986 69.682C37.4636 70.9481 44.0611 70.2983 50.0568 67.8148C56.0525 65.3313 61.1771 61.1256 64.7826 55.7296C68.3881 50.3337 70.3125 43.9897 70.3125 37.5C70.3125 28.7976 66.8555 20.4516 60.702 14.2981C54.5484 8.14452 46.2024 4.6875 37.5 4.6875Z" fill="#ACBD33"/>
</svg>
