<svg width="12" height="22" viewBox="0 0 12 22" fill="none" xmlns="http://www.w3.org/2000/svg">
<path id="Vector" d="M11.0063 2.95785C11.5542 2.4113 11.553 1.52329 11.0035 0.978287C10.458 0.437224 9.57777 0.438686 9.03405 0.981559L3.2547 6.75191C1.24937 8.75413 0.246707 9.75523 0.247022 10.9997C0.247336 12.2441 1.25051 13.2447 3.25685 15.2459L9.04495 21.0192C9.58843 21.5613 10.4681 21.5613 11.0116 21.0192C11.5571 20.4751 11.5571 19.5915 11.0116 19.0475L7.20245 15.2481C5.19518 13.246 4.19154 12.2449 4.19154 11C4.19154 9.7551 5.19518 8.75404 7.20245 6.75192L11.0063 2.95785Z" fill="#869633"/>
</svg>
