<svg width="99" height="73" viewBox="0 0 99 73" fill="none" xmlns="http://www.w3.org/2000/svg">
<g id="&#240;&#159;&#166;&#134; icon &#34;Users&#34;">
<path id="Vector" d="M21.716 20.6982C21.716 24.8803 18.4979 28.0473 14.8296 28.0473C11.1613 28.0473 7.9432 24.8803 7.9432 20.6982C7.9432 16.5161 11.1613 13.3491 14.8296 13.3491C18.4979 13.3491 21.716 16.5161 21.716 20.6982ZM90.9208 20.6982C90.9208 24.8803 87.7027 28.0473 84.0344 28.0473C80.3662 28.0473 77.148 24.8803 77.148 20.6982C77.148 16.5161 80.3662 13.3491 84.0344 13.3491C87.7027 13.3491 90.9208 16.5161 90.9208 20.6982ZM79.0912 39.2218H88.9776C92.6459 39.2218 95.864 42.3888 95.864 46.5709V51.7455C95.864 53.0816 94.8704 53.92 93.9208 53.92H86.245C84.9466 48.1274 81.8455 43.0717 77.5554 39.4053C78.0506 39.2848 78.5647 39.2218 79.0912 39.2218ZM63.7332 18.1109C63.7332 26.5944 57.2093 33.2218 49.432 33.2218C41.6547 33.2218 35.1308 26.5944 35.1308 18.1109C35.1308 9.62747 41.6547 3 49.432 3C57.2093 3 63.7332 9.62747 63.7332 18.1109ZM49.432 46.9837C53.4911 46.9837 57.2908 46.0087 60.7055 44.3964H61.2957C69.3356 44.3964 76.0912 51.2664 76.0912 60.0248V64.6818C76.0912 67.441 73.9853 69.4437 71.6764 69.4437H27.1876C24.8787 69.4437 22.7728 67.441 22.7728 64.6818V60.0248C22.7728 51.2664 29.5284 44.3964 37.5683 44.3964H38.161C41.5827 46.0067 45.3688 46.9837 49.432 46.9837ZM19.7728 39.2218C20.2993 39.2218 20.8134 39.2848 21.3086 39.4052C17.0172 43.0722 13.9148 48.1284 12.6079 53.92H4.9432C3.99368 53.92 3 53.0816 3 51.7455V46.5709C3 42.3888 6.21812 39.2218 9.8864 39.2218H19.7728Z" stroke="#ACBD33" stroke-width="6"/>
</g>
</svg>
