<svg xmlns="http://www.w3.org/2000/svg"
     width="14"
     height="14"
     viewBox="0 0 14 14"
     fill="none"
    >
      <path
        d="M0.446214 11.7929C0.0556892 12.1834 0.0556892 12.8166 0.446214 13.2071C0.836738 13.5976 1.4699 13.5976 1.86043 13.2071L0.446214 11.7929ZM13.1533 1.5C13.1533 0.947715 12.7056 0.5 12.1533 0.5L3.15332 0.499999C2.60104 0.5 2.15332 0.947715 2.15332 1.5C2.15332 2.05228 2.60104 2.5 3.15332 2.5L11.1533 2.5L11.1533 10.5C11.1533 11.0523 11.601 11.5 12.1533 11.5C12.7056 11.5 13.1533 11.0523 13.1533 10.5L13.1533 1.5ZM1.86043 13.2071L12.8604 2.20711L11.4462 0.792893L0.446214 11.7929L1.86043 13.2071Z"
        fill='#ACBD33'
      />
    </svg>